<svg width="24" height="25" viewBox="0 0 24 25" fill="none" xmlns="http://www.w3.org/2000/svg">
<g id="Frame" clip-path="url(#clip0_17_1244)">
<path id="Vector" d="M23.9467 20.5723V5.35995C23.9467 2.97232 21.9934 1.01904 19.6058 1.01904H4.39425C2.00662 1.01904 0.0533447 2.97232 0.0533447 5.35995V20.5723C0.0533447 22.9361 1.96822 24.8748 4.32428 24.9124H19.6757C22.0309 24.8748 23.9467 22.9369 23.9467 20.5723Z" fill="#64748B"/>
<path id="Vector_2" d="M17.0278 9.55225H18.3718V10.0335C18.3718 10.0719 18.3906 10.0898 18.4273 10.089C19.2243 10.0651 20.0273 10.0907 20.4386 10.9082C20.6835 11.3929 20.6332 12.1302 20.6195 12.7087C20.6187 12.7429 20.6349 12.7616 20.6673 12.765C20.7612 12.7736 20.8525 12.7821 20.9412 12.7932C22.5259 12.9835 22.2127 14.4777 22.2178 15.6519C22.2204 16.0615 22.1743 16.361 22.0813 16.5521C21.885 16.9481 21.5334 17.1751 21.0266 17.2314H20.0384L19.5332 16.0589C19.5307 16.0532 19.5296 16.0469 19.5301 16.0407C19.5305 16.0344 19.5325 16.0284 19.5358 16.0231C19.5391 16.0179 19.5436 16.0136 19.549 16.0106C19.5543 16.0076 19.5604 16.0061 19.5665 16.006L20.6383 16.0052C20.698 16.0052 20.7543 15.9796 20.7953 15.9352C20.8367 15.8904 20.8593 15.8315 20.8584 15.7705C20.8533 15.4121 20.8508 15.0545 20.8525 14.697C20.8525 14.3753 20.7006 14.2106 20.3942 14.2021C20.0478 14.1935 19.3916 14.1935 18.4247 14.2038C18.3906 14.2038 18.3735 14.2225 18.3735 14.2592L18.3684 17.2314H17.0261L17.0219 14.2464C17.0221 14.2394 17.0209 14.2324 17.0184 14.2259C17.0159 14.2193 17.0121 14.2133 17.0073 14.2082C17.0024 14.2031 16.9966 14.1991 16.9902 14.1963C16.9838 14.1934 16.9768 14.1919 16.9698 14.1918H15.7154C15.6999 14.1914 15.6851 14.1849 15.6743 14.1737C15.6634 14.1626 15.6574 14.1476 15.6574 14.1321L15.6591 12.8333C15.6591 12.7898 15.6796 12.7676 15.7205 12.7676L16.9604 12.7702C16.9684 12.7701 16.9764 12.7684 16.9837 12.7652C16.991 12.762 16.9976 12.7573 17.0031 12.7514C17.0142 12.7393 17.0203 12.7234 17.0202 12.707V11.584C17.0206 11.5645 17.0133 11.5455 16.9999 11.5313C16.9865 11.5171 16.968 11.5088 16.9485 11.5081L16.183 11.5115C16.1429 11.5115 16.1233 11.4902 16.1233 11.4484L16.1207 10.1428C16.1207 10.1044 16.1378 10.0856 16.1762 10.0856H16.969C17.0031 10.0856 17.0202 10.0685 17.0202 10.0318L17.0287 9.55225H17.0278ZM18.4196 12.7719L19.2533 12.7702C19.267 12.7702 19.2798 12.7642 19.2892 12.754C19.2987 12.7438 19.3039 12.7303 19.3037 12.7164L19.2994 11.6728C19.2994 11.5909 19.2397 11.5243 19.1671 11.5243L18.4981 11.526C18.4802 11.5263 18.4626 11.5304 18.4464 11.538C18.4302 11.5457 18.4158 11.5567 18.4043 11.5704C18.3788 11.6 18.3652 11.638 18.3659 11.677L18.3701 12.7207C18.3701 12.7497 18.3932 12.7719 18.4196 12.7719ZM9.79584 12.8657C9.47157 12.8717 8.88533 12.9622 8.75733 12.5449C8.67968 12.2957 8.85546 11.9484 8.96213 11.7052C9.26592 11.0132 9.56373 10.3185 9.85642 9.62137C9.86837 9.59321 9.88885 9.5787 9.91786 9.5787H11.2004C11.2115 9.5787 11.2209 9.58467 11.226 9.59406C11.229 9.59855 11.2308 9.60367 11.2314 9.60901C11.232 9.61435 11.2313 9.61975 11.2294 9.62478L10.487 11.3596C10.47 11.3997 10.4742 11.4449 10.4964 11.4825C10.5072 11.5001 10.5222 11.5146 10.5401 11.5248C10.558 11.5349 10.5782 11.5403 10.5988 11.5405H11.6979C11.7116 11.5405 11.7235 11.5473 11.7312 11.5584C11.738 11.5704 11.7397 11.584 11.7338 11.5968C11.4163 12.3367 11.0997 13.0714 10.784 13.801C10.7524 13.8735 10.7388 13.9273 10.7439 13.9614C10.755 14.0357 10.7968 14.0732 10.8685 14.0741L11.5639 14.0783C11.604 14.0792 11.6168 14.0988 11.6006 14.1381L11.1509 15.1962C11.1447 15.2137 11.1331 15.2288 11.1178 15.2394C11.1024 15.25 11.0842 15.2554 11.0656 15.2551C10.359 15.2636 9.86496 15.2636 9.58336 15.2508C9.11744 15.2295 9.00309 14.8216 9.184 14.4009L9.82314 12.9093C9.82501 12.9046 9.82575 12.8995 9.8253 12.8944C9.82486 12.8894 9.82324 12.8845 9.82058 12.8802C9.818 12.8758 9.81426 12.8721 9.80976 12.8695C9.80526 12.867 9.80016 12.8657 9.79498 12.8657H9.79584ZM4.46677 17.2314H3.9633L3.47008 16.0734C3.46762 16.0678 3.46657 16.0617 3.46702 16.0556C3.46747 16.0495 3.46939 16.0436 3.47264 16.0384C3.47559 16.0333 3.47981 16.0291 3.48489 16.0261C3.48998 16.0231 3.49575 16.0215 3.50165 16.0214L4.19797 16.0197C4.21937 16.0192 4.24048 16.0146 4.26009 16.006C4.27969 15.9974 4.29741 15.985 4.31223 15.9695C4.32705 15.9541 4.33868 15.9358 4.34645 15.9159C4.35423 15.8959 4.358 15.8747 4.35754 15.8533L4.37632 9.71182C4.37609 9.7039 4.37744 9.69602 4.38029 9.68863C4.38313 9.68124 4.38742 9.67449 4.3929 9.66878C4.39838 9.66306 4.40494 9.65849 4.4122 9.65533C4.41946 9.65217 4.42728 9.65049 4.4352 9.65038H5.63328C5.6896 9.65038 5.71776 9.68025 5.71861 9.73913C5.72373 11.8187 5.72373 13.8624 5.71861 15.8712C5.7152 16.6955 5.3329 17.2587 4.46677 17.2314Z" fill="#1E293B"/>
<path id="Vector_3" d="M15.7052 17.2317H11.1603L11.7696 15.8578C11.7757 15.8419 11.7866 15.8283 11.8009 15.8189C11.8151 15.8096 11.832 15.805 11.849 15.8057L12.9617 15.8075C13.001 15.8075 13.0215 15.7878 13.0215 15.7477V11.5792C13.0215 11.5433 13.0044 11.5254 12.9703 11.5254L12.2321 11.5246C12.1988 11.5246 12.1724 11.4956 12.1724 11.4606V10.1234C12.1724 10.1029 12.1877 10.0859 12.2074 10.0859H15.2162C15.2538 10.0859 15.2717 10.1055 15.2717 10.1447L15.2734 11.4674C15.2734 11.5058 15.2546 11.5254 15.2171 11.5254H14.473C14.4388 11.5254 14.4218 11.5433 14.4218 11.5792V15.7452C14.4218 15.7853 14.4414 15.8049 14.4789 15.8049L15.6582 15.8075C15.6907 15.8075 15.7069 15.8245 15.7069 15.8587L15.7052 17.2325V17.2317ZM21.1179 10.2156C22.0463 9.57727 22.7 11.2046 21.6828 11.4836C21.5172 11.5297 21.2536 11.5323 20.8926 11.4921C20.8602 11.4887 20.8448 11.4708 20.8448 11.4367C20.8397 11.0527 20.7637 10.4588 21.1179 10.2164V10.2156ZM8.30166 15.0002L7.68726 16.4312C7.6318 16.5592 7.57121 16.5618 7.5038 16.4415C7.05153 15.624 6.89793 14.9567 6.80918 13.9404C6.74092 13.151 6.68204 12.3617 6.63084 11.5707C6.62913 11.5348 6.64534 11.5169 6.67948 11.5169L7.92449 11.5177C7.95948 11.5177 7.9791 11.5365 7.98166 11.5724C8.04566 12.4923 8.11308 13.4096 8.18305 14.3244C8.20097 14.5599 8.24108 14.7553 8.30252 14.9106C8.30861 14.9248 8.31169 14.9401 8.31154 14.9555C8.31139 14.9709 8.30803 14.9861 8.30166 15.0002ZM1.76001 14.9473V14.8884C1.81851 14.809 1.8566 14.7164 1.87094 14.6188C1.9631 13.6033 2.0382 12.5887 2.09708 11.5732C2.09964 11.5416 2.115 11.5254 2.14486 11.5254H3.41633C3.42742 11.5254 3.43852 11.5305 3.44705 11.5399C3.45473 11.5485 3.459 11.5604 3.45814 11.5724C3.3911 12.5079 3.31629 13.4429 3.23372 14.3773C3.17398 15.0557 2.95724 15.9636 2.50412 16.514C2.4751 16.549 2.45036 16.5456 2.43158 16.5029L1.76001 14.9473ZM10.4316 17.2317H8.59009L8.35542 17.1387C8.32214 17.1259 8.31276 17.1028 8.32812 17.0695L8.90582 15.7469C8.92289 15.7085 8.9502 15.694 8.98945 15.7042C9.62092 15.8757 10.3522 15.8049 10.9982 15.8075C11.0383 15.8083 11.0494 15.8279 11.0323 15.8655L10.4316 17.2308V17.2317Z" fill="#1E293B"/>
</g>
<defs>
<clipPath id="clip0_17_1244">
<rect width="24" height="24" fill="white" transform="translate(0 0.96582)"/>
</clipPath>
</defs>
</svg>
