<svg width="24" height="25" viewBox="0 0 24 25" fill="none" xmlns="http://www.w3.org/2000/svg">
<g id="Frame" clip-path="url(#clip0_13_138)">
<path id="Vector" d="M22.9031 5.84551C23.6859 6.69395 24.0469 7.70645 23.9953 8.9252V18.4127C23.9766 19.6502 23.5641 20.6674 22.7531 21.4643C21.9469 22.2611 20.9203 22.6783 19.6828 22.7158H4.31344C3.07359 22.6783 2.05359 22.2564 1.25344 21.4408C0.453844 20.6252 0.0359531 19.5518 0 18.2252V8.9252C0.0359531 7.70645 0.453844 6.69395 1.25344 5.84551C2.05359 5.0791 3.07359 4.65816 4.31344 4.62207H5.69063L4.50234 3.41223C4.23281 3.14363 4.09781 2.80285 4.09781 2.39082C4.09781 1.97832 4.23281 1.63801 4.50234 1.36909C4.77188 1.10026 5.11406 0.96582 5.52656 0.96582C5.93906 0.96582 6.28125 1.10026 6.55313 1.36909L9.98906 4.62207H14.1141L17.6063 1.36909C17.8922 1.10026 18.2438 0.96582 18.6563 0.96582C19.0688 0.96582 19.4109 1.10026 19.6828 1.36909C19.95 1.63801 20.0859 1.97832 20.0859 2.39082C20.0859 2.80285 19.95 3.14363 19.6828 3.41223L18.4969 4.62207H19.8703C21.1078 4.65816 22.1203 5.0791 22.9031 5.84551ZM21.0844 9.1127C21.0656 8.6627 20.9109 8.29707 20.5828 8.01113C20.3391 7.7252 19.9266 7.57051 19.5188 7.55176H4.50234C4.05281 7.57051 3.68438 7.7252 3.39703 8.01113C3.10922 8.29707 2.95641 8.6627 2.93859 9.1127V18.2252C2.93859 18.6564 3.09141 19.0221 3.39703 19.3268C3.70266 19.6314 4.07109 19.7861 4.50234 19.7861H19.5188C19.95 19.7861 20.3156 19.6314 20.6109 19.3268C20.9063 19.0221 21.0656 18.6564 21.0844 18.2252V9.1127ZM8.69531 11.1143C8.99063 11.4096 9.15 11.7752 9.16875 12.2018V13.7627C9.15 14.1939 8.99531 14.5549 8.70938 14.8502C8.41875 15.1455 8.05313 15.2955 7.60313 15.2955C7.15313 15.2955 6.78281 15.1455 6.49688 14.8502C6.21094 14.5549 6.05625 14.1939 6.0375 13.7627V12.2018C6.05625 11.7752 6.21563 11.4096 6.51094 11.1143C6.80625 10.8189 7.12969 10.6643 7.60313 10.6455C8.03438 10.6643 8.4 10.8189 8.69531 11.1143ZM17.6719 11.1143C17.9672 11.4096 18.1266 11.7752 18.1453 12.2018V13.7627C18.1266 14.1939 17.9719 14.5549 17.6859 14.8502C17.4 15.1455 17.0297 15.2955 16.5797 15.2955C16.1297 15.2955 15.7641 15.1455 15.4734 14.8502C15.1453 14.5549 15.0328 14.1939 15.0188 13.7627V12.2018C15.0328 11.7752 15.1922 11.4096 15.4875 11.1143C15.7828 10.8189 16.1484 10.6643 16.5797 10.6455C17.0109 10.6643 17.3766 10.8189 17.6719 11.1143Z" fill="#64748B"/>
</g>
<defs>
<clipPath id="clip0_13_138">
<rect width="24" height="24" fill="white" transform="translate(0 0.96582)"/>
</clipPath>
</defs>
</svg>
